<svg width="134" height="35" viewBox="0 0 69 18" xmlns="http://www.w3.org/2000/svg" xmlns:xlink="http://www.w3.org/1999/xlink"><title>Group</title><defs><path id="a" d="M0 .016h16.65V16.94H0"/></defs><g fill="none" fill-rule="evenodd"><path d="M6.808 7.485l-1.61 4.768L9.75 10.48l1.7-4.72-4.642 1.725zM4.77 12.703L6.602 7.28l5.284-1.964-1.93 5.37-5.186 2.017z" fill="#ffc20e"/><path d="M11.647 5.56l-1.815 5.044L8.498 8.76 6.684 7.404l4.963-1.845z" fill="#ffc20e"/><path d="M7 7.433v0zm-.06.182l-1.468 4.343 4.14-1.61 1.548-4.3-4.22 1.567zm-2.25 4.648zm.14 1.032c-.165 0-.33-.064-.452-.185-.18-.178-.245-.45-.163-.69l1.8-5.328c.062-.188.205-.337.39-.406l5.188-1.928c.237-.088.505-.027.683.154.178.18.237.453.15.693L10.53 10.88c-.065.18-.202.322-.377.39l-5.09 1.98c-.076.03-.154.045-.232.045z" fill="#ffc20e"/><g transform="translate(0 .53)"><mask id="b" fill="#fff"><use xlink:href="#a"/></mask><path d="M8.325 1.34c-3.872 0-7.023 3.202-7.023 7.14 0 3.935 3.15 7.138 7.023 7.138 3.873 0 7.024-3.203 7.024-7.14 0-3.936-3.152-7.138-7.025-7.138m0 15.6C3.735 16.94 0 13.146 0 8.48 0 3.81 3.735.015 8.325.015S16.65 3.812 16.65 8.48c0 4.665-3.734 8.46-8.325 8.46" fill="#ffc20e" mask="url(#b)"/></g><path d="M8.75 2.914c-.154.07-.333-.002-.4-.158-.07-.157 0-.34.155-.408.154-.07.333.002.4.158.07.157 0 .34-.155.408M8.75 15.67c-.154.068-.333-.003-.4-.16-.07-.156 0-.338.155-.407.154-.07.333.002.4.16.07.155 0 .338-.155.406M14.76 9.076c-.152.07-.332-.002-.4-.158-.068-.157.002-.34.156-.408.154-.07.334.002.4.16.07.155 0 .338-.155.406M2.38 9.076c-.155.07-.334-.002-.402-.158-.068-.157.002-.34.156-.408.154-.07.334.002.4.16.07.155 0 .338-.155.406M23.614 3.182v6.195h.335c.12 0 .215-.017.283-.05.068-.035.14-.098.218-.19l1.858-2.293c.082-.097.17-.174.262-.23.092-.055.214-.083.364-.083h1.645l-2.323 2.774c-.083.102-.168.196-.255.28-.087.086-.182.16-.284.223.102.073.192.157.27.255.077.097.155.2.233.313L28.71 14h-1.623c-.14 0-.26-.024-.357-.073-.097-.048-.184-.13-.262-.247l-1.9-2.832c-.073-.112-.146-.185-.218-.22-.073-.033-.182-.05-.328-.05h-.408V14h-1.798V3.182h1.798zm8.125 3.35V14h-1.8V6.53h1.8zm.268-2.178c0 .155-.03.3-.095.437-.063.137-.146.256-.25.358-.105.1-.228.183-.368.243-.14.062-.292.092-.452.092-.155 0-.302-.03-.44-.09s-.26-.143-.36-.244c-.102-.102-.184-.22-.244-.357-.062-.135-.092-.28-.092-.436 0-.16.03-.31.09-.45.06-.142.143-.263.245-.365.1-.103.222-.185.36-.245.138-.06.285-.09.44-.09.16 0 .31.03.452.09.14.06.263.142.367.244.105.1.188.222.25.363.065.14.096.29.096.45zM33.77 14V6.53h1.1c.232 0 .385.11.458.328l.116.554c.13-.146.268-.28.412-.4.143-.122.296-.226.458-.314.163-.087.338-.156.524-.207.187-.05.392-.076.616-.076.47 0 .857.128 1.16.382.304.255.53.594.68 1.016.118-.248.263-.46.438-.637s.367-.322.575-.433c.21-.112.43-.194.666-.248.236-.053.472-.08.71-.08.413 0 .78.063 1.1.19.32.126.59.31.808.553.22.242.385.54.5.888.113.35.17.75.17 1.2V14h-1.798V9.246c0-.475-.104-.833-.313-1.074-.21-.24-.515-.36-.918-.36-.185 0-.356.032-.513.095-.16.063-.297.154-.416.273-.12.12-.213.268-.28.447-.07.18-.103.386-.103.62V14h-1.804V9.246c0-.5-.1-.864-.302-1.092-.2-.228-.5-.342-.892-.342-.257 0-.5.064-.724.193-.226.13-.436.304-.63.528V14H33.77zM47.85 3.182v6.195h.334c.122 0 .216-.017.284-.05.068-.035.14-.098.22-.19l1.855-2.293c.083-.097.17-.174.262-.23.092-.055.214-.083.364-.083h1.644l-2.322 2.774c-.082.102-.167.196-.255.28-.087.086-.182.16-.284.223.102.073.192.157.27.255.077.097.155.2.233.313L52.946 14H51.32c-.14 0-.26-.024-.357-.073-.097-.048-.184-.13-.262-.247l-1.9-2.832c-.073-.112-.146-.185-.218-.22-.073-.033-.182-.05-.328-.05h-.408V14h-1.8V3.182h1.8zm8.124 3.35V14h-1.798V6.53h1.798zm.27-2.178c0 .155-.032.3-.095.437-.064.137-.148.256-.253.358-.104.1-.226.183-.367.243-.14.062-.29.092-.452.092-.155 0-.302-.03-.44-.09s-.258-.143-.36-.244c-.102-.102-.184-.22-.244-.357-.06-.135-.09-.28-.09-.436 0-.16.03-.31.09-.45.06-.142.142-.263.244-.365.102-.103.222-.185.36-.245.138-.06.285-.09.44-.09.16 0 .31.03.452.09.14.06.263.142.367.244.105.1.19.222.252.363.062.14.093.29.093.45zM58.003 14V6.53h1.1c.233 0 .386.11.46.328l.115.554c.13-.146.268-.28.41-.4.144-.122.297-.226.46-.314.162-.087.337-.156.524-.207.186-.05.39-.076.615-.076.47 0 .857.128 1.16.382.303.255.53.594.68 1.016.117-.248.263-.46.437-.637.175-.177.367-.322.575-.433.21-.112.43-.194.667-.248.234-.053.47-.08.708-.08.413 0 .78.063 1.1.19.32.126.59.31.808.553.218.242.384.54.498.888.114.35.17.75.17 1.2V14h-1.797V9.246c0-.475-.104-.833-.313-1.074-.208-.24-.514-.36-.917-.36-.184 0-.355.032-.513.095-.158.063-.296.154-.415.273-.12.12-.214.268-.28.447-.07.18-.103.386-.103.62V14H62.35V9.246c0-.5-.1-.864-.3-1.092-.202-.228-.5-.342-.893-.342-.257 0-.498.064-.724.193-.226.13-.436.304-.63.528V14h-1.798z" fill="#ffc20e"/></g></svg>