<svg width="2230" height="791" viewBox="0 0 2230 791" fill="none" xmlns="http://www.w3.org/2000/svg">
<path d="M938.469 632.77C950.491 632.77 960.997 635.153 969.987 639.919C978.977 644.684 985.908 651.4 990.782 660.064C995.765 668.621 998.256 678.531 998.256 689.795C998.256 700.951 995.765 710.862 990.782 719.526C985.908 728.191 978.922 734.906 969.824 739.672C960.835 744.438 950.383 746.82 938.469 746.82H895.741V632.77H938.469ZM936.682 722.776C947.188 722.776 955.365 719.905 961.214 714.165C967.063 708.425 969.987 700.301 969.987 689.795C969.987 679.289 967.063 671.112 961.214 665.263C955.365 659.414 947.188 656.49 936.682 656.49H923.522V722.776H936.682ZM1099.24 700.031C1099.24 702.63 1099.08 705.338 1098.75 708.154H1035.88C1036.31 713.786 1038.1 718.118 1041.24 721.151C1044.49 724.075 1048.44 725.537 1053.1 725.537C1060.03 725.537 1064.85 722.613 1067.56 716.764H1097.13C1095.61 722.721 1092.85 728.083 1088.84 732.848C1084.94 737.614 1080.01 741.351 1074.06 744.058C1068.1 746.766 1061.44 748.12 1054.07 748.12C1045.19 748.12 1037.28 746.225 1030.35 742.434C1023.42 738.643 1018.01 733.227 1014.11 726.187C1010.21 719.147 1008.26 710.916 1008.26 701.493C1008.26 692.07 1010.15 683.838 1013.94 676.798C1017.84 669.758 1023.26 664.343 1030.19 660.552C1037.12 656.761 1045.08 654.865 1054.07 654.865C1062.85 654.865 1070.64 656.707 1077.47 660.389C1084.29 664.072 1089.6 669.325 1093.39 676.148C1097.29 682.972 1099.24 690.933 1099.24 700.031ZM1070.81 692.72C1070.81 687.954 1069.18 684.163 1065.93 681.347C1062.68 678.531 1058.62 677.123 1053.75 677.123C1049.09 677.123 1045.14 678.477 1041.89 681.185C1038.75 683.892 1036.8 687.737 1036.04 692.72H1070.81ZM1150.77 748.12C1142.87 748.12 1135.83 746.766 1129.65 744.058C1123.48 741.351 1118.61 737.668 1115.03 733.011C1111.46 728.245 1109.45 722.938 1109.02 717.089H1136.48C1136.8 720.23 1138.26 722.776 1140.86 724.725C1143.46 726.675 1146.66 727.65 1150.45 727.65C1153.91 727.65 1156.57 727 1158.41 725.7C1160.36 724.292 1161.33 722.505 1161.33 720.339C1161.33 717.739 1159.98 715.844 1157.27 714.652C1154.56 713.353 1150.18 711.945 1144.11 710.428C1137.61 708.912 1132.2 707.341 1127.87 705.717C1123.53 703.984 1119.8 701.33 1116.66 697.756C1113.51 694.074 1111.94 689.145 1111.94 682.972C1111.94 677.773 1113.35 673.062 1116.17 668.837C1119.09 664.505 1123.32 661.093 1128.84 658.602C1134.47 656.111 1141.13 654.865 1148.82 654.865C1160.2 654.865 1169.13 657.682 1175.63 663.314C1182.24 668.946 1186.03 676.419 1187 685.734H1161.33C1160.9 682.593 1159.49 680.102 1157.11 678.26C1154.83 676.419 1151.8 675.498 1148.01 675.498C1144.76 675.498 1142.27 676.148 1140.54 677.448C1138.8 678.639 1137.94 680.318 1137.94 682.484C1137.94 685.084 1139.29 687.033 1142 688.333C1144.82 689.633 1149.15 690.933 1155 692.232C1161.71 693.965 1167.18 695.698 1171.41 697.431C1175.63 699.056 1179.31 701.764 1182.45 705.554C1185.7 709.237 1187.38 714.219 1187.49 720.501C1187.49 725.808 1185.97 730.574 1182.94 734.798C1180.02 738.914 1175.74 742.163 1170.11 744.546C1164.58 746.929 1158.14 748.12 1150.77 748.12ZM1255.01 723.263V746.82H1240.88C1230.81 746.82 1222.95 744.383 1217.32 739.509C1211.69 734.527 1208.87 726.458 1208.87 715.302V679.235H1197.83V656.165H1208.87V634.07H1236.65V656.165H1254.85V679.235H1236.65V715.627C1236.65 718.335 1237.3 720.284 1238.6 721.476C1239.9 722.667 1242.07 723.263 1245.1 723.263H1255.01ZM1284.46 646.742C1279.59 646.742 1275.58 645.334 1272.44 642.518C1269.4 639.594 1267.89 636.02 1267.89 631.796C1267.89 627.463 1269.4 623.889 1272.44 621.073C1275.58 618.149 1279.59 616.686 1284.46 616.686C1289.23 616.686 1293.12 618.149 1296.16 621.073C1299.3 623.889 1300.87 627.463 1300.87 631.796C1300.87 636.02 1299.3 639.594 1296.16 642.518C1293.12 645.334 1289.23 646.742 1284.46 646.742ZM1298.27 656.165V746.82H1270.49V656.165H1298.27ZM1373.64 655.19C1384.25 655.19 1392.7 658.656 1398.98 665.588C1405.37 672.412 1408.57 681.835 1408.57 693.857V746.82H1380.95V697.594C1380.95 691.528 1379.38 686.817 1376.24 683.459C1373.1 680.102 1368.87 678.423 1363.57 678.423C1358.26 678.423 1354.04 680.102 1350.89 683.459C1347.75 686.817 1346.18 691.528 1346.18 697.594V746.82H1318.4V656.165H1346.18V668.188C1349 664.18 1352.79 661.039 1357.56 658.765C1362.32 656.382 1367.68 655.19 1373.64 655.19ZM1422.35 701.33C1422.35 692.016 1424.08 683.838 1427.55 676.798C1431.12 669.758 1435.94 664.343 1442.01 660.552C1448.07 656.761 1454.84 654.865 1462.32 654.865C1468.71 654.865 1474.29 656.165 1479.05 658.765C1483.93 661.364 1487.66 664.776 1490.26 669V656.165H1518.04V746.82H1490.26V733.986C1487.55 738.21 1483.76 741.621 1478.89 744.221C1474.12 746.82 1468.55 748.12 1462.15 748.12C1454.79 748.12 1448.07 746.225 1442.01 742.434C1435.94 738.535 1431.12 733.065 1427.55 726.025C1424.08 718.876 1422.35 710.645 1422.35 701.33ZM1490.26 701.493C1490.26 694.561 1488.31 689.091 1484.41 685.084C1480.62 681.076 1475.96 679.073 1470.44 679.073C1464.92 679.073 1460.21 681.076 1456.31 685.084C1452.52 688.983 1450.62 694.398 1450.62 701.33C1450.62 708.262 1452.52 713.786 1456.31 717.902C1460.21 721.909 1464.92 723.913 1470.44 723.913C1475.96 723.913 1480.62 721.909 1484.41 717.902C1488.31 713.894 1490.26 708.425 1490.26 701.493ZM1588.67 723.263V746.82H1574.53C1564.46 746.82 1556.61 744.383 1550.98 739.509C1545.34 734.527 1542.53 726.458 1542.53 715.302V679.235H1531.48V656.165H1542.53V634.07H1570.31V656.165H1588.51V679.235H1570.31V715.627C1570.31 718.335 1570.96 720.284 1572.26 721.476C1573.56 722.667 1575.72 723.263 1578.76 723.263H1588.67ZM1618.11 646.742C1613.24 646.742 1609.23 645.334 1606.09 642.518C1603.06 639.594 1601.54 636.02 1601.54 631.796C1601.54 627.463 1603.06 623.889 1606.09 621.073C1609.23 618.149 1613.24 616.686 1618.11 616.686C1622.88 616.686 1626.78 618.149 1629.81 621.073C1632.95 623.889 1634.52 627.463 1634.52 631.796C1634.52 636.02 1632.95 639.594 1629.81 642.518C1626.78 645.334 1622.88 646.742 1618.11 646.742ZM1631.92 656.165V746.82H1604.14V656.165H1631.92ZM1693.32 748.12C1684.44 748.12 1676.43 746.225 1669.28 742.434C1662.24 738.643 1656.66 733.227 1652.54 726.187C1648.54 719.147 1646.53 710.916 1646.53 701.493C1646.53 692.178 1648.59 684.001 1652.71 676.961C1656.82 669.812 1662.45 664.343 1669.6 660.552C1676.75 656.761 1684.77 654.865 1693.65 654.865C1702.53 654.865 1710.54 656.761 1717.69 660.552C1724.84 664.343 1730.47 669.812 1734.59 676.961C1738.7 684.001 1740.76 692.178 1740.76 701.493C1740.76 710.807 1738.65 719.039 1734.43 726.187C1730.31 733.227 1724.62 738.643 1717.37 742.434C1710.22 746.225 1702.2 748.12 1693.32 748.12ZM1693.32 724.075C1698.63 724.075 1703.12 722.126 1706.81 718.227C1710.6 714.327 1712.49 708.75 1712.49 701.493C1712.49 694.236 1710.65 688.658 1706.97 684.759C1703.4 680.86 1698.95 678.91 1693.65 678.91C1688.23 678.91 1683.74 680.86 1680.16 684.759C1676.59 688.55 1674.8 694.128 1674.8 701.493C1674.8 708.75 1676.53 714.327 1680 718.227C1683.57 722.126 1688.02 724.075 1693.32 724.075ZM1810.74 655.19C1821.35 655.19 1829.8 658.656 1836.08 665.588C1842.47 672.412 1845.67 681.835 1845.67 693.857V746.82H1818.05V697.594C1818.05 691.528 1816.48 686.817 1813.34 683.459C1810.2 680.102 1805.97 678.423 1800.67 678.423C1795.36 678.423 1791.13 680.102 1787.99 683.459C1784.85 686.817 1783.28 691.528 1783.28 697.594V746.82H1755.5V656.165H1783.28V668.188C1786.1 664.18 1789.89 661.039 1794.65 658.765C1799.42 656.382 1804.78 655.19 1810.74 655.19ZM1970.4 726.675H1927.83L1921.01 746.82H1891.93L1933.19 632.77H1965.36L2006.63 746.82H1977.22L1970.4 726.675ZM1963.25 705.229L1949.12 663.476L1935.14 705.229H1963.25ZM2046.97 669C2049.68 664.776 2053.41 661.364 2058.18 658.765C2062.94 656.165 2068.52 654.865 2074.91 654.865C2082.39 654.865 2089.16 656.761 2095.22 660.552C2101.29 664.343 2106.05 669.758 2109.52 676.798C2113.09 683.838 2114.88 692.016 2114.88 701.33C2114.88 710.645 2113.09 718.876 2109.52 726.025C2106.05 733.065 2101.29 738.535 2095.22 742.434C2089.16 746.225 2082.39 748.12 2074.91 748.12C2068.63 748.12 2063.05 746.82 2058.18 744.221C2053.41 741.621 2049.68 738.264 2046.97 734.148V790.036H2019.19V656.165H2046.97V669ZM2086.61 701.33C2086.61 694.398 2084.66 688.983 2080.76 685.084C2076.97 681.076 2072.26 679.073 2066.63 679.073C2061.1 679.073 2056.39 681.076 2052.49 685.084C2048.7 689.091 2046.81 694.561 2046.81 701.493C2046.81 708.425 2048.7 713.894 2052.49 717.902C2056.39 721.909 2061.1 723.913 2066.63 723.913C2072.15 723.913 2076.86 721.909 2080.76 717.902C2084.66 713.786 2086.61 708.262 2086.61 701.33ZM2157.24 669C2159.94 664.776 2163.68 661.364 2168.45 658.765C2173.21 656.165 2178.79 654.865 2185.18 654.865C2192.65 654.865 2199.42 656.761 2205.49 660.552C2211.55 664.343 2216.32 669.758 2219.78 676.798C2223.36 683.838 2225.15 692.016 2225.15 701.33C2225.15 710.645 2223.36 718.876 2219.78 726.025C2216.32 733.065 2211.55 738.535 2205.49 742.434C2199.42 746.225 2192.65 748.12 2185.18 748.12C2178.9 748.12 2173.32 746.82 2168.45 744.221C2163.68 741.621 2159.94 738.264 2157.24 734.148V790.036H2129.45V656.165H2157.24V669ZM2196.88 701.33C2196.88 694.398 2194.93 688.983 2191.03 685.084C2187.24 681.076 2182.53 679.073 2176.89 679.073C2171.37 679.073 2166.66 681.076 2162.76 685.084C2158.97 689.091 2157.07 694.561 2157.07 701.493C2157.07 708.425 2158.97 713.894 2162.76 717.902C2166.66 721.909 2171.37 723.913 2176.89 723.913C2182.42 723.913 2187.13 721.909 2191.03 717.902C2194.93 713.786 2196.88 708.262 2196.88 701.33Z" fill="#F7360F"/>
<path d="M104.133 310.192C104.133 527.156 104.31 538.765 107.614 537.428C109.529 536.654 121.64 532.519 134.528 528.238C236.4 494.398 349.176 501.622 441.224 547.88C451.04 552.814 473.865 565.403 491.945 575.855C569.352 620.605 615.592 640.478 665.758 650.555C683.806 654.18 694.759 655.018 724.722 655.064C763.174 655.122 775.695 653.632 811.812 644.694C823.059 641.91 847.851 636.457 848.229 636.872C849.458 638.3 849.078 740.665 848.449 741.297C847.092 742.654 814.188 749.653 796.327 752.876C767.159 758.141 706.045 759.162 672.928 754.941C641.668 750.955 602.664 741.471 574.547 731.021C546.089 720.441 487.811 691.61 446.743 667.791C397.96 639.498 386.242 633.485 366.069 626.393C303.881 604.529 226.2 605.349 156.935 628.603C134.896 636.001 110.479 647.213 95.5547 656.789L84.2285 664.055L42.4658 643.816L0.702148 623.574V81.5473H104.133V310.192ZM1510.69 274.353C1558.11 381.484 1597.22 469.908 1597.59 470.864C1597.95 471.803 1590.11 472.574 1580.16 472.574H1562.06L1565.18 480.055C1566.89 484.171 1569.09 488.341 1570.07 489.325C1571.12 490.376 1584.29 485.941 1602.09 478.547C1624.9 469.067 1633.1 466.479 1635.51 467.999C1641.45 471.76 1639.18 477.32 1629.75 482.084C1620.77 486.617 1617.16 490.591 1622.12 490.459C1623.58 490.42 1627.01 489.105 1629.75 487.537C1636.1 483.892 1642.56 483.788 1645.45 487.284C1649.15 491.758 1645.99 495.878 1635.33 500.478C1629 503.211 1625.99 505.511 1627.18 506.705C1628.37 507.898 1632.27 507.154 1637.76 504.692C1647.49 500.323 1653.61 501.825 1653.61 508.581C1653.61 511.338 1650.77 513.859 1644.17 516.95C1638.97 519.381 1634.4 521.556 1634.02 521.78C1633.64 522.001 1633.87 523.062 1634.53 524.135C1635.26 525.318 1639.66 524.423 1645.69 521.87C1654.8 518.011 1655.92 517.921 1658.81 520.824C1665.84 527.874 1661.21 530.761 1607.38 552.915C1576.67 565.554 1552.46 574.389 1548.6 574.363C1536.68 574.287 1536.17 573.398 1505.8 499.507C1496.06 475.823 1494.64 473.485 1489.45 472.574C1484.31 471.67 1482.64 469.02 1471.85 444.643C1465.29 429.83 1459.7 417.385 1459.41 416.986C1459.13 416.591 1451.46 419.469 1442.37 423.386C1395.13 443.734 1341.35 445.629 1295.33 428.564C1286.17 425.166 1277 422.233 1274.96 422.043C1272 421.77 1268.94 426.934 1260.06 447.137L1248.89 472.574H1214.61L1206.48 491.028C1202.01 501.177 1198.97 509.717 1199.72 510.01C1200.48 510.301 1214.53 516.601 1230.94 524.01C1255.32 535.018 1260.89 538.294 1261.41 541.943C1262.33 548.405 1256.77 549.666 1245.33 545.59C1239.95 543.673 1234.96 542.743 1234.23 543.523C1233.52 544.303 1233.82 545.283 1234.92 545.7C1236.01 546.119 1240.49 548.493 1244.86 550.977C1250.78 554.337 1252.82 556.757 1252.82 560.419C1252.82 567.017 1246.55 567.794 1236.17 562.484C1230.9 559.787 1227.73 559.111 1226.87 560.503C1226.15 561.664 1225.88 562.799 1226.26 563.021C1226.65 563.244 1231.21 565.419 1236.41 567.851C1243.9 571.358 1245.86 573.283 1245.86 577.154C1245.86 584.152 1239.76 585.327 1229.82 580.242C1224.27 577.405 1220.85 576.657 1219.52 577.99C1218.19 579.324 1220.95 581.463 1227.82 584.427C1236.83 588.317 1238.03 589.511 1237.51 594.063C1237.11 597.512 1235.54 599.454 1232.86 599.841C1227.79 600.566 1131.11 557.642 1125.14 552.014C1116.54 543.914 1117.26 539.104 1132.15 505.145L1146 473.572L1140.54 472.574L1135.07 471.577L1221.79 275.569L1308.51 79.5581L1366.48 79.5561L1424.45 79.5522L1510.69 274.353ZM1878.84 57.5229C1900.73 51.5977 1937.48 52.9782 1957.94 60.4975C1988.6 71.7655 2016.8 94.5914 2031.12 119.737C2046.12 146.063 2053.15 184.438 2049.47 219.927C2044.71 265.922 2033.63 294.074 2001.2 342.625C1985.62 365.935 1977.88 381.325 1977.85 389.014C1977.81 399.203 1991.48 422.299 2006.44 437.314C2022.86 453.801 2037.08 462.816 2057.72 469.836C2073.85 475.319 2114.01 480.476 2116.91 477.436C2117.9 476.389 2119.21 400.481 2119.89 304.991C2120.55 211.175 2121.62 121.625 2122.27 105.987L2123.45 77.5571H2228.5L2227.25 188.781C2226.56 249.954 2225.43 360.603 2224.74 434.668L2223.48 569.333L2213.54 570.618C2208.07 571.322 2185.53 573.068 2163.45 574.493C2082.96 579.692 2033.41 569.955 1989.53 540.317C1973.68 529.607 1942.85 498.328 1927.11 476.973C1920.55 468.068 1914.65 460.742 1914 460.694C1913.36 460.644 1906.65 468.452 1899.09 478.046C1834.41 560.104 1780.57 582.092 1662.93 574.493C1640.85 573.068 1618.31 571.322 1612.84 570.618L1602.9 569.333L1635.31 555.649C1667.43 542.089 1671.3 539.449 1674.43 528.927C1675.71 524.63 1674.14 520.193 1663.36 497.512C1661.28 493.123 1659.57 488.322 1659.58 486.846C1659.58 485.37 1658.35 481.779 1656.85 478.867C1655.35 475.954 1652.67 470.196 1650.91 466.068C1648.76 461.047 1645.34 457.438 1640.57 455.16C1633.83 451.938 1632.96 451.945 1624.14 455.313C1608.18 461.41 1608.38 461.41 1605.19 455.217C1602.65 450.289 1602.04 425.682 1601.04 286.942C1600.39 197.566 1599.37 113.892 1598.77 100.998L1597.68 77.5571H1704.68L1706 210.726C1706.72 283.97 1707.32 368.134 1707.33 397.76C1707.34 427.386 1707.93 457.79 1708.64 465.326L1709.93 479.026L1727.9 477.616C1768.26 474.45 1794.54 463.025 1819.71 437.71C1843.63 413.648 1852.63 392.471 1845.84 376.182C1844.13 372.074 1834.75 356.395 1824.99 341.34C1786.09 281.3 1775.16 246.836 1777.49 191.58C1778.73 161.997 1781.93 148.549 1793.18 125.506C1808.8 93.4961 1841.34 67.6697 1878.84 57.5229ZM482.601 78.0258L537.992 78.5551L634.838 297.185L731.683 515.814L732.188 296.686L732.695 77.5571H848.043V308.466L857.491 306.733C921.304 295.024 981.848 247.183 1008.93 187.063C1021.74 158.632 1031 118.39 1031.03 91.0239L1031.04 79.5522H1131.04L1129.67 99.0044C1124.44 173.582 1103.92 232.969 1065.56 284.558L1054.79 299.038L1074.02 317.476C1096.73 339.248 1114.47 361.464 1129.45 386.897C1146.72 416.194 1146.66 412.857 1130.53 449.124C1122.88 466.326 1116.38 481.536 1116.1 482.924C1115.81 484.311 1117.59 485.755 1120.05 486.132C1122.51 486.509 1124.52 487.497 1124.52 488.329C1124.52 489.159 1120.39 499.068 1115.34 510.346C1107.32 528.283 1106.27 532.163 1107.03 541.298C1107.57 547.81 1109.58 554.115 1112.36 558.045L1116.84 564.345H1066.84V553.295C1066.84 522.658 1059.88 486.28 1049.01 460.091C1036.38 429.667 1007.57 393.91 981.518 376.322L970.784 369.076L957.193 375.941C926.371 391.508 889.261 403.139 861.47 405.936L848.043 407.289V566.34L644.164 566.225L615.331 500.261C599.472 463.982 585.797 433.862 584.939 433.332C584.083 432.801 575.558 434.209 565.996 436.461C539.874 442.612 506.054 445.03 479.569 442.64C451.169 440.076 435.617 436.725 407.441 427.097L384.888 419.392L366.801 460.564L348.715 501.737L334.33 499.014C326.42 497.518 302.717 495.776 281.657 495.148C260.605 494.518 243.381 493.786 243.368 493.518C243.368 493.253 256.183 464.101 271.849 428.737L300.33 364.443L283.221 347.186C264.106 327.908 244.89 303.012 230.843 279.327C223.103 266.275 221.488 261.862 221.488 253.76V243.971L232.656 240.163C249.227 234.515 271.411 220.749 285.991 207.071L298.889 194.969L304.989 208.463C311.43 222.71 333.857 257.798 340.118 263.426C343.675 266.624 345.402 263.151 385.512 172.124L427.207 77.4975L482.601 78.0258ZM1367.17 208.649C1366.04 207.332 1311.5 327.996 1311.5 331.831C1311.5 334.007 1331.67 342.224 1342.92 344.632C1364.55 349.259 1388.59 345.646 1409.09 334.687L1420.52 328.573L1408.13 300.323C1401.31 284.785 1389.61 258.158 1382.12 241.15C1374.64 224.142 1367.91 209.517 1367.17 208.649ZM478.455 207.235C476.318 212.173 463.702 240.871 450.417 271.007C437.134 301.146 426.686 326.903 427.199 328.244C428.53 331.719 456.29 340.114 476.007 343.004C498.977 346.374 543.716 343.695 543.717 338.953C543.717 338.135 529.906 306.144 513.029 267.862L482.342 198.257L478.455 207.235ZM209.874 253.695C211.447 267.576 199.915 299.44 190.115 308.294C184.852 313.048 172.282 320.953 169.964 320.965C169.144 320.968 168.472 305.71 168.472 287.057V253.142L175.931 252.926C180.034 252.809 189.208 251.686 196.318 250.433L209.248 248.155L209.874 253.695ZM1931.39 147.529C1915.76 139.942 1896 143.725 1883.96 156.609C1867.29 174.443 1862.81 215.81 1873.54 252.929C1880.34 276.415 1898.04 305.851 1910.75 314.779C1914.66 317.526 1915.5 317.047 1924.65 306.859C1936.03 294.19 1950.08 266.205 1955.14 246.137C1959.86 227.438 1960.04 194.121 1955.5 179.304C1951.04 164.731 1941.84 152.602 1931.39 147.529ZM285.847 34.0737C291.468 36.4179 300.415 42.2534 305.726 47.0415C319.402 59.3747 322.657 69.7407 322.516 100.522C322.418 121.667 321.758 126.208 316.851 139.425C307.488 164.634 298.344 179.148 281.025 196.284C255.913 221.13 219.843 237.402 182.952 240.53L168.472 241.756L168.474 238.569C230.608 213.474 275.355 162.143 276.849 94.4838L276.876 94.4809L281.463 82.8862C286.573 69.9704 288.982 54.5741 287.08 46.977C286.392 44.2258 283.531 39.2386 280.725 35.893L275.623 29.812L285.847 34.0737ZM266.549 95.9731C264.492 156.383 225.136 203.282 168.483 227.468L168.496 212.039C168.53 169.435 173.291 154.687 194.081 132.824C212.1 113.873 239.619 99.86 266.41 95.9936L266.549 95.9731ZM222.95 38.6518C250.24 32.6986 269.897 36.3359 275.607 48.3979C277.938 53.3194 277.865 55.9832 275.088 67.2768C273.308 74.5064 271.136 81.1417 270.261 82.02C267.658 84.627 170.476 81.344 170.461 78.6489C170.461 74.4893 181.827 58.3055 187.629 54.2036C197.922 46.9278 210.59 41.3491 222.95 38.6518ZM303.337 56.8764C302.615 51.8073 294.846 49.9779 293.127 54.4721C291.621 58.4083 296.984 63.7868 300.908 62.2768C302.623 61.6164 303.677 59.2723 303.337 56.8764ZM238.089 2.44381C250.399 -0.486868 280.321 0.279241 292.546 3.84029C303.138 6.92462 309.704 13.9378 309.666 22.1274C309.612 33.7281 307.557 34.8828 295.464 30.1128C278.658 23.4854 269.99 21.7383 254.002 21.7583C235.965 21.7802 218.646 25.6504 201.323 33.5288L188.398 39.4077L191.211 33.9497C195.127 26.3526 211.016 12.0722 219.81 8.24361C223.847 6.48604 232.072 3.87627 238.089 2.44381Z" fill="#F7360F"/>
</svg>
